<svg width="70" height="70" viewBox="0 0 70 70" fill="none" xmlns="http://www.w3.org/2000/svg">
<rect width="69.1797" height="69.1797" rx="14.5642" fill="#1E3A8A"/>
<path d="M35.0884 23.5068C35.3524 23.3985 35.6486 23.3985 35.9126 23.5068L59.0708 33.0117C59.478 33.1789 59.7435 33.5755 59.7437 34.0156V36.9873C59.7436 37.3975 59.5125 37.7727 59.146 37.957L36.1724 49.5088C35.8677 49.662 35.5083 49.663 35.2026 49.5117L11.8599 37.9551C11.4901 37.7719 11.2564 37.395 11.2564 36.9824V34.0156C11.2566 33.5756 11.5221 33.1789 11.9292 33.0117L35.0884 23.5068ZM16.5776 35.9209L35.688 45.3828L54.4976 35.9248L35.5005 28.583L16.5776 35.9209ZM35.0767 14.6514C35.3472 14.5368 35.6528 14.5368 35.9233 14.6514L66.6978 27.6973C67.5377 28.0538 67.5898 29.2247 66.7847 29.6543L65.0894 30.5586C64.7984 30.7137 64.4528 30.7279 64.1499 30.5976L35.9292 18.456C35.6553 18.3382 35.3447 18.3382 35.0708 18.456L6.85108 30.5976C6.54809 30.728 6.2017 30.7138 5.91065 30.5586L4.21534 29.6543C3.41021 29.2246 3.46291 28.0535 4.30323 27.6973L35.0767 14.6514Z" fill="white" fill-opacity="0.9"/>
<path d="M11.9863 45.621V43.7355C11.9863 42.9551 12.806 42.4463 13.5053 42.7926L35.196 53.5315C35.4922 53.6782 35.8402 53.6771 36.1355 53.5286L57.4575 42.8073C58.1572 42.4554 58.9823 42.9641 58.9823 43.7473V45.6256C58.9823 46.0232 58.7581 46.3869 58.4028 46.5656L36.1355 57.7623C35.8402 57.9108 35.4922 57.9119 35.196 57.7652L12.5716 46.564C12.2132 46.3865 11.9863 46.0211 11.9863 45.621Z" fill="#FFE492"/>
<path d="M6.06291 45.4476C6.06291 45.4476 5.91385 33.6547 5.91385 33.5668C5.91385 33.4788 5.47909 32.9152 4.58742 32.9152C3.69575 32.9152 3.50153 33.8201 3.50162 34.001C3.50171 34.182 4.40653 43.4121 4.40653 43.4121C4.40653 43.4121 4.71583 46.206 5.24159 46.206C5.76734 46.206 6.06291 45.7004 6.06291 45.4476Z" fill="white"/>
<path d="M4.04456 49.2034C4.04397 50.1084 4.17613 50.3267 4.94888 51.5562C5.72163 52.7857 5.85438 54.4519 5.85438 54.4519C6.06489 54.1359 6.93397 53.0896 7.30164 51.1942C7.56641 49.8293 7.27285 48.7826 7.12134 48.4795C6.75943 47.7556 6.07724 47.3936 5.24159 47.5746C4.40593 47.7556 4.04515 48.2985 4.04456 49.2034Z" fill="white"/>
<path d="M4.04439 49.2043C4.0438 50.1093 4.17596 50.3276 4.94875 51.5572C5.72155 52.7868 5.8543 54.453 5.8543 54.453C6.06482 54.1371 6.93395 53.0906 7.30163 51.1952C7.56642 49.8302 7.27284 48.7835 7.12132 48.4804C6.7594 47.7564 6.07717 47.3944 5.24147 47.5754C4.40578 47.7564 4.04498 48.2994 4.04439 49.2043Z" fill="#FFE492"/>
</svg>
