<svg width="64" height="64" viewBox="0 0 64 64" fill="none" xmlns="http://www.w3.org/2000/svg">
<path d="M46 8H18C16.8954 8 16 8.89543 16 10V54C16 55.1046 16.8954 56 18 56H46C47.1046 56 48 55.1046 48 54V10C48 8.89543 47.1046 8 46 8Z" fill="#667EEA"/>
<path d="M20.9988 35V26.2727H24.4419C25.1039 26.2727 25.6678 26.3991 26.1337 26.652C26.5996 26.902 26.9547 27.25 27.199 27.696C27.4462 28.1392 27.5698 28.6506 27.5698 29.2301C27.5698 29.8097 27.4448 30.321 27.1948 30.7642C26.9448 31.2074 26.5826 31.5526 26.1081 31.7997C25.6365 32.0469 25.0655 32.1705 24.3951 32.1705H22.2005V30.6918H24.0968C24.4519 30.6918 24.7445 30.6307 24.9746 30.5085C25.2076 30.3835 25.3809 30.2116 25.4945 29.9929C25.611 29.7713 25.6692 29.517 25.6692 29.2301C25.6692 28.9403 25.611 28.6875 25.4945 28.4716C25.3809 28.2528 25.2076 28.0838 24.9746 27.9645C24.7417 27.8423 24.4462 27.7812 24.0882 27.7812H22.8439V35H20.9988ZM31.862 35H28.7683V26.2727H31.8876C32.7654 26.2727 33.5211 26.4474 34.1547 26.7969C34.7882 27.1435 35.2754 27.642 35.6163 28.2926C35.9601 28.9432 36.1319 29.7216 36.1319 30.6278C36.1319 31.5369 35.9601 32.3182 35.6163 32.9716C35.2754 33.625 34.7853 34.1264 34.1461 34.4759C33.5098 34.8253 32.7484 35 31.862 35ZM30.6135 33.419H31.7853C32.3308 33.419 32.7896 33.3224 33.1618 33.1293C33.5368 32.9332 33.818 32.6307 34.0055 32.2216C34.1958 31.8097 34.291 31.2784 34.291 30.6278C34.291 29.983 34.1958 29.456 34.0055 29.0469C33.818 28.6378 33.5382 28.3366 33.166 28.1435C32.7939 27.9503 32.335 27.8537 31.7896 27.8537H30.6135V33.419ZM37.4988 35V26.2727H43.2772V27.794H39.3439V29.8736H42.8936V31.3949H39.3439V35H37.4988Z" fill="white"/>
<path d="M48 0L50 6L56 8L50 10L48 16L46 10L40 8L46 6L48 0Z" fill="#FFD700"/>
</svg>
