<svg width="200" height="200" viewBox="0 0 200 200" fill="none" xmlns="http://www.w3.org/2000/svg">
<path d="M175 36.1667C173.75 35.1736 172.287 34.4838 170.725 34.1512C169.164 33.8187 167.546 33.8525 166 34.25L108.333 49.0833V168L171.333 151.833C173.587 151.257 175.582 149.942 177.002 148.1C178.421 146.257 179.183 143.993 179.167 141.667V44.3333C179.141 42.7444 178.752 41.1825 178.03 39.7669C177.308 38.3514 176.271 37.1199 175 36.1667ZM91.6667 49.0833L33.8333 34.25C32.3108 33.8974 30.729 33.8865 29.2018 34.2179C27.6745 34.5493 26.2395 35.2148 25 36.1667C23.7369 37.1542 22.7188 38.4199 22.025 39.8653C21.3312 41.3108 20.9804 42.8968 21 44.5V141.667C21.0018 143.978 21.7724 146.224 23.1906 148.049C24.6088 149.875 26.5939 151.177 28.8333 151.75L91.6667 168V49.0833Z" fill="#1E3A8A"/>
</svg>
